<?xml version="1.0" standalone="no"?>
<svg xmlns="http://www.w3.org/2000/svg" version="1.1" xmlns:xlink="http://www.w3.org/1999/xlink" width="512" height="512" x="0" y="0" viewBox="0 0 512 512" style="enable-background:new 0 0 512 512" xml:space="preserve"><g><path d="M256.4 42.7h210.4c20.9 0 36.2 10.1 42.6 27.8 8 21.9-3.2 46.1-25.1 54.1-4 1.5-8.1 2.3-12.4 2.5-1.8.1-3.5.1-5.3.1H45.1c-10.2 0-19.5-2.1-27.9-8.2C3.3 108.8-3.1 90.9 1.4 74.1c4.3-16.8 18.7-29.2 36-31 3.9-.4 7.9-.5 11.9-.4zM255.6 298.2H43.9C16 298.2-3.3 276.1.7 249c2.5-17.3 17-31.9 34.3-34.5 3.3-.5 6.5-.7 9.8-.7h422.8c21.7 0 38.3 12.3 43.1 31.6 6.7 27-12.6 52.4-40.7 52.8-24.1.3-48.2.1-72.3.1zM256.3 469.3h-213c-27.2-.1-46.2-21.9-42.8-48.5 2.3-17.4 16.3-32.2 33.6-35.1 3.5-.6 7-.9 10.5-.8 140.9 0 281.9 0 422.8.2 8.3.1 16.4 2.2 23.8 6 16.8 8.9 24.1 28.2 19.4 46.8-4.7 18.3-21 31.2-39.9 31.4-17.8.3-35.5.1-53.3.1z" fill="#ffffff" opacity="1" data-original="#000000"/></g></svg>